<?xml version="1.0" encoding="utf-8"?>
<!-- Generator: Adobe Illustrator 15.1.0, SVG Export Plug-In . SVG Version: 6.00 Build 0)  -->
<!DOCTYPE svg PUBLIC "-//W3C//DTD SVG 1.1//EN" "http://www.w3.org/Graphics/SVG/1.1/DTD/svg11.dtd">
<svg version="1.1" id="Layer_1" xmlns="http://www.w3.org/2000/svg" xmlns:xlink="http://www.w3.org/1999/xlink" x="0px" y="0px"
	 width="555.066px" height="500px" viewBox="122.467 50 555.066 500" enable-background="new 122.467 50 555.066 500"
	 xml:space="preserve">
<rect x="122.467" y="50" fill="#F7DF1E" width="555.066" height="500"/>
<g>
	<g>
		<g>
			<path d="M400,420.215c-0.379,0-0.759-0.101-1.1-0.298L188.824,298.636c-1.051-0.609-1.412-1.949-0.802-3
				c0.604-1.056,1.949-1.416,3-0.807L400,415.487l208.978-120.658c1.052-0.609,2.396-0.25,3,0.807c0.609,1.051,0.255,2.391-0.802,3
				L401.1,419.922C400.759,420.119,400.379,420.215,400,420.215z"/>
			<g>
				<path d="M614.517,230.14c0-1.262-0.643-2.496-1.814-3.173L409.927,109.9c-5.568-3.216-14.29-3.216-19.863,0L187.297,226.967
					c-1.176,0.677-1.819,1.911-1.819,3.173h-0.015v21.024c0,6.432,4.363,13.987,9.931,17.204l194.674,112.396
					c2.789,1.604,6.36,2.41,9.931,2.41s7.143-0.807,9.927-2.41l194.678-112.396c5.568-3.216,9.932-10.771,9.932-17.204V230.14
					H614.517z M393.727,116.241c3.341-1.93,9.201-1.93,12.542,0l198.744,114.744l-198.01,114.326
					c-3.797,2.189-10.204,2.189-14.006,0L194.982,230.984L393.727,116.241z M600.942,262.026L406.273,374.418
					c-3.341,1.93-9.201,1.93-12.542,0L199.058,262.026c-3.341-1.93-6.273-7.003-6.273-10.863v-16.373l198.014,114.321
					c2.583,1.493,5.889,2.232,9.202,2.232c3.308,0,6.619-0.739,9.197-2.232l198.019-114.321v16.373
					C607.216,255.023,604.288,260.097,600.942,262.026z"/>
				<path d="M610.874,335.816c-1.867,0-3.394,1.406-3.615,3.216l-200.75,115.906c-3.528,2.035-9.494,2.035-13.022,0L192.741,339.032
					c-0.221-1.81-1.747-3.216-3.614-3.216c-2.021,0-3.663,1.642-3.663,3.667v21.02c0,6.432,4.363,13.992,9.931,17.203
					l194.674,112.396c2.789,1.604,6.36,2.41,9.931,2.41s7.143-0.807,9.927-2.41l194.678-112.396
					c5.568-3.216,9.932-10.771,9.932-17.203v-21.02C614.536,337.458,612.899,335.816,610.874,335.816z M600.942,371.365
					L406.273,483.758c-3.341,1.929-9.201,1.929-12.542,0L199.058,371.365c-3.341-1.93-6.273-7.003-6.273-10.862V344.13
					l198.509,114.61c2.438,1.411,5.572,2.111,8.707,2.111c3.13,0,6.269-0.7,8.707-2.111l198.509-114.61v16.373
					C607.216,364.362,604.288,369.436,600.942,371.365z"/>
			</g>
			<g>
				<path d="M603.266,311.413c4.186-2.414,7.608-0.437,7.608,4.392v2.554c0,4.834-3.423,10.762-7.608,13.177L407.608,444.503
					c-4.187,2.414-11.031,2.414-15.216,0L196.734,331.539c-4.186-2.414-7.608-8.342-7.608-13.176v-2.554
					c0-4.828,3.422-6.806,7.608-4.392l195.653,112.963c4.186,2.415,11.031,2.415,15.216,0L603.266,311.413z"/>
			</g>
			<path d="M400,409.842c-0.379,0-0.759-0.096-1.1-0.292c-7.061-4.08-10.555-9.591-13.939-14.924
				c-3.24-5.112-6.302-9.94-12.422-13.479c-5.645-3.259-8.102-2.218-11.227-0.897c-3.384,1.431-7.594,3.207-15.129-1.143
				c-7.061-4.08-10.556-9.59-13.939-14.923c-3.235-5.107-6.297-9.937-12.417-13.474c-5.645-3.26-8.107-2.223-11.227-0.897
				c-3.384,1.43-7.594,3.211-15.135-1.138c-7.056-4.08-10.555-9.591-13.934-14.924c-3.24-5.116-6.298-9.945-12.422-13.478
				c-5.64-3.26-8.107-2.218-11.228-0.898c-3.384,1.426-7.594,3.207-15.129-1.142c-7.056-4.08-10.555-9.591-13.939-14.924
				c-3.24-5.107-6.297-9.936-12.422-13.473c-5.64-3.254-8.103-2.213-11.222-0.897c-3.389,1.43-7.599,3.211-15.135-1.143
				c-1.051-0.605-1.411-1.949-0.801-3c0.604-1.051,1.949-1.411,3-0.802c5.645,3.259,8.107,2.218,11.227,0.903
				c3.384-1.431,7.594-3.211,15.129,1.137c7.056,4.075,10.556,9.595,13.939,14.928c3.24,5.106,6.298,9.936,12.422,13.474
				c5.64,3.264,8.103,2.213,11.227,0.902c3.384-1.436,7.599-3.212,15.135,1.133c7.056,4.08,10.555,9.6,13.934,14.933
				c3.24,5.107,6.303,9.936,12.422,13.474c5.645,3.259,8.107,2.213,11.228,0.902c3.384-1.436,7.598-3.216,15.134,1.133
				c7.056,4.08,10.555,9.59,13.935,14.924c3.245,5.106,6.302,9.936,12.427,13.473c5.64,3.265,8.107,2.223,11.222,0.903
				c3.389-1.426,7.598-3.207,15.134,1.137c7.056,4.08,10.55,9.596,13.935,14.929c3.043,4.79,5.923,9.341,11.328,12.806
				c5.399-3.465,8.284-8.016,11.323-12.806c3.384-5.333,6.883-10.854,13.935-14.929c7.531-4.344,11.74-2.572,15.134-1.137
				c3.11,1.319,5.578,2.361,11.223-0.903c6.12-3.532,9.183-8.361,12.423-13.473c3.384-5.334,6.883-10.849,13.934-14.924
				c7.531-4.349,11.751-2.568,15.135-1.133c3.115,1.311,5.577,2.356,11.228-0.902c6.115-3.533,9.182-8.361,12.422-13.474
				c3.379-5.333,6.879-10.857,13.935-14.933c7.536-4.345,11.745-2.568,15.13-1.133c3.12,1.311,5.587,2.356,11.227-0.902
				c6.125-3.533,9.188-8.362,12.428-13.474c3.384-5.333,6.883-10.853,13.935-14.923c7.531-4.349,11.74-2.573,15.134-1.138
				c3.11,1.32,5.578,2.362,11.223-0.902c1.051-0.609,2.391-0.25,3,0.802s0.249,2.395-0.807,3c-7.531,4.349-11.745,2.573-15.13,1.142
				c-3.119-1.315-5.582-2.356-11.222,0.903c-6.125,3.533-9.188,8.361-12.423,13.473c-3.384,5.333-6.883,10.848-13.939,14.923
				c-7.531,4.35-11.745,2.568-15.129,1.143c-3.12-1.319-5.583-2.361-11.232,0.897c-6.12,3.528-9.178,8.357-12.422,13.479
				c-3.38,5.333-6.879,10.849-13.93,14.914c-7.536,4.358-11.746,2.577-15.135,1.146c-3.115-1.324-5.582-2.361-11.227,0.898
				c-6.12,3.532-9.183,8.361-12.423,13.474c-3.384,5.333-6.883,10.848-13.939,14.923c-7.531,4.349-11.745,2.573-15.129,1.143
				c-3.12-1.32-5.583-2.361-11.223,0.897c-6.125,3.533-9.183,8.361-12.423,13.479c-3.384,5.333-6.883,10.848-13.939,14.923
				C400.759,409.746,400.379,409.842,400,409.842z"/>
		</g>
	</g>
	<g>
		<g id="id5">
			<path fill="#323330" d="M535.198,207.736c-11.338-5.646-24.874-7.808-47.769-3.224c-8.316,1.358-16.345,3.665-23.199,1.5
				c-3.606-1.51-5.37-2.538-6.787-3.942c-4.753-4.463-1.2-9.093,4.746-10.763c3.947-1.002,9.301-0.917,15.268,0.887
				c1.157-8.669,1.182-8.631,2.053-14.64c-5.659-1.214-8.409-1.684-11.253-1.926c-10.827-1.26-20.138,0.496-29.505,6.839
				c-1.393,1.248-2.777,2.513-4.17,3.76c-3.222,4.097-4.516,9.131-2.808,13.664c3.844,12.768,26.939,24.577,45.283,23.746
				c19.073-0.185,35.394-7.929,46.016-3.465c12.547,5.755,8.184,13.039-0.858,17.264c-7.311,2.707-14.32,2.333-24.695,0.14
				c-1.573,7.158-1.573,7.158-3.216,14.494c5.966,1.827,9.599,2.05,16.023,2.825c28.576,2.462,58.595-17.867,39.515-37.143
				C549.227,217.07,545.081,212.515,535.198,207.736z M404.728,206.023l-15.9,10.227c17.872,11.416,35.562,22.797,53.435,34.214
				c11.382,7.268,22.264,13.644,24.037,16.599c3.965,5.514-2.847,8.892-6.812,9.882c-4.582,0.656-8.548-0.057-13.792-1.293
				c-1.484-0.367-2.622-0.659-2.804-0.627c-0.887,4.965-1.733,9.933-2.619,14.898c7.891,2.286,16.044,3.43,23.334,2.889
				c10.795-0.874,20.389-5.187,26.359-12.29c3.444-4.905,3.87-10.765-0.246-16.607c-5.069-7.876-16.358-14.095-28.021-21.503
				C442.808,230.242,423.758,218.178,404.728,206.023z"/>
		</g>
	</g>
</g>
</svg>
